<svg width="19" height="19" viewBox="0 0 19 19" fill="none" xmlns="http://www.w3.org/2000/svg">
  <path
    d="M9.53545 19L8.79104 18.6607C3.01306 15.871 0 10.4048 0 6.44643C0 2.82738 2.48134 0 5.63619 0C7.125 0 8.50746 0.678571 9.5 1.77183C10.528 0.678571 11.875 0 13.3638 0C16.5187 0 19 2.82738 19 6.44643C19 10.4048 15.9869 15.9087 10.209 18.6607L9.46455 19H9.53545ZM5.63619 3.76984C4.46642 3.76984 3.54478 4.93849 3.54478 6.44643C3.54478 8.97222 5.63619 12.6667 9.53545 14.8532C13.4347 12.6667 15.5261 8.97222 15.5261 6.44643C15.5261 4.93849 14.6045 3.76984 13.4347 3.76984C12.2649 3.76984 11.3433 4.97619 11.3433 6.44643H7.79851C7.79851 4.97619 6.84142 3.76984 5.70709 3.76984H5.63619Z"
    fill="#D9D9D9" />
</svg>
  