<svg width="12" height="12" viewBox="0 0 12 12" fill="none" xmlns="http://www.w3.org/2000/svg">
  <path
    d="M6.02239 12L5.55224 11.7857C1.90299 10.0238 0 6.57143 0 4.07143C0 1.78571 1.56716 0 3.5597 0C4.5 0 5.37313 0.428571 6 1.11905C6.64925 0.428571 7.5 0 8.4403 0C10.4328 0 12 1.78571 12 4.07143C12 6.57143 10.097 10.0476 6.44776 11.7857L5.97761 12H6.02239ZM3.5597 2.38095C2.8209 2.38095 2.23881 3.11905 2.23881 4.07143C2.23881 5.66667 3.5597 8 6.02239 9.38095C8.48507 8 9.80597 5.66667 9.80597 4.07143C9.80597 3.11905 9.22388 2.38095 8.48507 2.38095C7.74627 2.38095 7.16418 3.14286 7.16418 4.07143H4.92537C4.92537 3.14286 4.3209 2.38095 3.60448 2.38095H3.5597Z"
    fill="black" />
</svg>
  