<svg width="26" height="30" viewBox="0 0 26 30" fill="none" xmlns="http://www.w3.org/2000/svg">
  <path
    d="M24.0417 12.5392C23.7381 10.1139 23.0179 7.7418 21.9167 5.55258L25.6786 3.48137C25.7738 3.42827 25.8333 3.32795 25.8333 3.22174V0.294908C25.8333 0.0765758 25.5774 -0.0768467 25.3929 0.0352697L0.154762 14.038C0.0595238 14.0911 0 14.1914 0 14.2977V15.708C0 15.8142 0.0595238 15.9086 0.154762 15.9617L25.3929 29.9645C25.5833 30.0766 25.8452 29.9291 25.8333 29.7048V26.778C25.8333 26.6718 25.7738 26.5715 25.6786 26.5184L21.9345 24.4648C23.7917 20.8004 24.5417 16.6108 24.0417 12.5392ZM4.74405 15.0235L19.3214 6.98649C21.8452 11.955 21.8512 18.0624 19.3333 23.0309L4.74405 15.0235Z"
    fill="url(#paint0_linear_3_10)" />
  <defs>
    <linearGradient id="paint0_linear_3_10" x1="0" y1="14.9999" x2="25.8333" y2="14.9999"
      gradientUnits="userSpaceOnUse">
      <stop stop-color="#00FF8D" />
      <stop offset="1" stop-color="#00FFF2" />
    </linearGradient>
  </defs>
</svg>
  