<svg width="27" height="28" viewBox="0 0 27 28" fill="none" xmlns="http://www.w3.org/2000/svg">
  <path
    d="M26.2862 24.3475L19.5097 17.497C20.8909 15.6644 21.711 13.3955 21.711 10.952C21.711 4.93058 16.8336 0 10.8339 0C4.83425 0 0 4.93058 0 10.952C0 16.9734 4.87742 21.904 10.8339 21.904C12.8194 21.904 14.6754 21.3368 16.2724 20.3768L23.2217 27.4018L26.2862 24.3038V24.3475ZM4.3163 10.952C4.3163 7.33042 7.25138 4.36335 10.8339 4.36335C14.4164 4.36335 17.3515 7.33042 17.3515 10.952C17.3515 14.5736 14.4164 17.5407 10.8339 17.5407C7.25138 17.5407 4.3163 14.5736 4.3163 10.952Z"
    fill="#D9D9D9" />
</svg>
  